# File created by Blade
# Date/Time:  Fri Jan 16 17:45:47 2015
#---------------------------------------------------------
:version 1.10
:name HOM
:units
  mass 1.0
  length 1.000000
  angle deg
:documentation
     Acclaim Skeleton File
:root
   axis xyz
   order TX TY TZ RX RY RZ
   position 0.000000 0.000000 0.000000
   orientation 0 0 0
:bonedata
   begin
      id 1
      name Spine_dum
      direction 0.000000 1.000000 0.000000
      length 7.170412
      axis 0.0 0.0 0.0 xyz
   end
   begin
      id 2
      name LeftUpLeg_dum
      direction 1.000000 0.000000 0.000000
      length 4.318350
      axis 0.0 0.0 0.0 xyz
   end
   begin
      id 3
      name RightUpLeg_dum
      direction -1.000000 0.000000 0.000000
      length 4.318350
      axis 0.0 0.0 0.0 xyz
   end
   begin
      id 4
      name Spine
      direction 0.000000 1.000000 0.000000
      length 0.000000
      axis 0.0 0.0 0.0 xyz
      dof rx ry rz
   end
   begin
      id 5
      name Spine_dum1
      direction 0.000000 1.000000 0.000000
      length 14.276153
      axis 0.0 0.0 0.0 xyz
   end
   begin
      id 6
      name Spine_dum2
      direction 0.000000 1.000000 0.000000
      length 10.718243
      axis 0.0 0.0 0.0 xyz
   end
   begin
      id 7
      name Spine_dum3
      direction 0.000000 1.000000 0.000000
      length 10.718243
      axis 0.0 0.0 0.0 xyz
   end
   begin
      id 8
      name Head
      direction 0.000000 1.000000 0.000000
      length 4.527550
      axis 0.0 0.0 0.0 xyz
      dof rx ry rz
   end
   begin
      id 9
      name LeftShoulder
      direction 1.000000 0.000000 0.000000
      length 7.058872
      axis 0.0 0.0 -90.0 xyz
      dof rx ry rz
   end
   begin
      id 10
      name LeftArm
      direction 1.000000 0.000000 0.000000
      length 10.955525
      axis 0.0 0.0 -90.0 xyz
      dof rx ry rz
   end
   begin
      id 11
      name LeftForeArm
      direction 1.000000 0.000000 0.000000
      length 8.193716
      axis 0.0 0.0 -90.0 xyz
      dof ry rz rx
   end
   begin
      id 12
      name LeftHand
      direction 0.000000 0.000000 0.000000
      length 0.000000
      axis 0.0 0.0 -90.0 xyz
      dof rx ry rz
   end
   begin
      id 13
      name LeftHand_dum1
      direction 0.000000 0.000000 0.000000
      length 0.000000
      axis 0.0 0.0 -90.0 xyz
   end
   begin
      id 14
      name LeftHand_dum2
      direction 1.000000 0.000000 0.000000
      length 3.937000
      axis 0.0 0.0 -90.0 xyz
   end
   begin
      id 15
      name LeftHandThumb1
      direction 0.000000 0.000000 1.000000
      length 3.937000
      axis 0.0 0.0 -90.0 xyz
      dof rx rz ry
   end
   begin
      id 16
      name RightShoulder
      direction -1.000000 0.000000 0.000000
      length 7.058872
      axis 0.0 0.0 90.0 xyz
      dof rx ry rz
   end
   begin
      id 17
      name RightArm
      direction -1.000000 0.000000 0.000000
      length 10.955525
      axis 0.0 0.0 90.0 xyz
      dof rx ry rz
   end
   begin
      id 18
      name RightForeArm
      direction -1.000000 0.000000 0.000000
      length 8.193716
      axis 0.0 0.0 90.0 xyz
      dof ry rz rx
   end
   begin
      id 19
      name RightHand
      direction 0.000000 0.000000 0.000000
      length 0.000000
      axis 0.0 0.0 90.0 xyz
      dof rx ry rz
   end
   begin
      id 20
      name RightHand_dum1
      direction 0.000000 0.000000 0.000000
      length 0.000000
      axis 0.0 0.0 90.0 xyz
   end
   begin
      id 21
      name RightHand_dum2
      direction -1.000000 0.000000 0.000000
      length 3.937000
      axis 0.0 0.0 90.0 xyz
   end
   begin
      id 22
      name RightHandThumb1
      direction 0.000000 0.000000 1.000000
      length 3.937000
      axis 0.0 0.0 90.0 xyz
      dof rx rz ry
   end
   begin
      id 23
      name LeftUpLeg
      direction 0.000000 -1.000000 0.000000
      length 17.323638
      axis 0.0 0.0 0.0 xyz
      dof rx ry rz
   end
   begin
      id 24
      name LeftLeg
      direction 0.000000 -1.000000 0.000000
      length 16.270368
      axis 0.0 0.0 0.0 xyz
      dof rx ry rz
   end
   begin
      id 25
      name LeftFoot
      direction 0.000000 -0.258819 0.965926
      length 4.922846
      axis 15.0 0.0 0.0 xyz
      dof rx ry rz
   end
   begin
      id 26
      name LeftToeBase
      direction 0.000000 0.000000 1.000000
      length 2.952750
      axis 0.0 0.0 0.0 xyz
      dof rx ry rz
   end
   begin
      id 27
      name RightUpLeg
      direction 0.000000 -1.000000 0.000000
      length 17.323638
      axis 0.0 0.0 0.0 xyz
      dof rx ry rz
   end
   begin
      id 28
      name RightLeg
      direction 0.000000 -1.000000 0.000000
      length 16.270368
      axis 0.0 0.0 0.0 xyz
      dof rx ry rz
   end
   begin
      id 29
      name RightFoot
      direction 0.000000 -0.258819 0.965926
      length 4.922846
      axis 15.0 0.0 0.0 xyz
      dof rx ry rz
   end
   begin
      id 30
      name RightToeBase
      direction 0.000000 0.000000 1.000000
      length 2.952750
      axis 0.0 0.0 0.0 xyz
      dof rx ry rz
   end
:hierarchy
   begin
      root Spine_dum LeftUpLeg_dum RightUpLeg_dum
      Spine_dum Spine
      LeftUpLeg_dum LeftUpLeg
      RightUpLeg_dum RightUpLeg
      Spine Spine_dum1 Spine_dum2 Spine_dum3
      Spine_dum1 Head
      Spine_dum2 LeftShoulder
      Spine_dum3 RightShoulder
      LeftShoulder LeftArm
      LeftArm LeftForeArm
      LeftForeArm LeftHand
      LeftHand LeftHand_dum1 LeftHand_dum2
      LeftHand_dum1 LeftHandThumb1
      RightShoulder RightArm
      RightArm RightForeArm
      RightForeArm RightHand
      RightHand RightHand_dum1 RightHand_dum2
      RightHand_dum1 RightHandThumb1
      LeftUpLeg LeftLeg
      LeftLeg LeftFoot
      LeftFoot LeftToeBase
      RightUpLeg RightLeg
      RightLeg RightFoot
      RightFoot RightToeBase
   end

# File created by Blade
# Date/Time:  Fri Jan 16 17:45:28 2015
# Frame Rate: 120.000 fps
#------------------------------------------------------
:FULLY-SPECIFIED
:DEGREES
2223
root -5.323983 35.254831 -10.195560 -3.324989 -7.986108 -6.156276
Spine -1.114987 -3.083691 10.495377
Head 6.545404 3.788425 -9.736630
LeftShoulder -19.259912 15.175471 -17.978870
LeftArm 19.491478 2.473371 -73.117610
LeftForeArm 4.240592 0.000000 11.947277
LeftHand 1.923180 -0.000000 -6.508814
LeftHandThumb1 -26.253704 0.000000 33.147579
RightShoulder 0.083672 1.857965 3.622935
RightArm -0.831592 31.845862 75.284001
RightForeArm 10.674783 -0.000000 97.780634
RightHand 11.023243 -0.000000 -5.820661
RightHandThumb1 -24.326973 -0.000000 -32.862282
LeftUpLeg 13.505156 16.474721 7.924677
LeftLeg -8.752957 -0.000000 0.000000
LeftFoot -15.776712 27.889708 -8.154126
LeftToeBase 22.826294 -0.000000 -0.000000
RightUpLeg 9.059282 -2.982588 4.160422
RightLeg -3.940763 -0.000000 0.000000
RightFoot -3.937190 -26.436654 3.785393
RightToeBase 13.569209 -0.000000 -0.000000
2224
root -5.323376 35.254050 -10.190067 -3.301716 -7.954844 -6.159301
Spine -1.167127 -3.198904 10.496122
Head 6.544768 3.866919 -9.745849
LeftShoulder -19.283280 15.198345 -17.981484
LeftArm 19.438580 2.461588 -73.122432
LeftForeArm 4.233914 -0.000000 11.935239
LeftHand 1.939028 0.000000 -6.508243
LeftHandThumb1 -26.253704 0.000000 33.147579
RightShoulder -0.058096 1.886227 3.628372
RightArm -1.150430 33.368590 75.242105
RightForeArm 10.940616 0.000000 97.803051
RightHand 11.249560 0.000000 -7.454023
RightHandThumb1 -24.326973 -0.000000 -32.862282
LeftUpLeg 13.491392 16.468605 7.921028
LeftLeg -8.775108 -0.000000 0.000000
LeftFoot -15.770592 27.885062 -8.133358
LeftToeBase 22.856085 -0.000000 -0.000000
RightUpLeg 9.040255 -3.006375 4.162494
RightLeg -3.926067 -0.000000 0.000000
RightFoot -3.954062 -26.449132 3.758438
RightToeBase 13.581247 -0.000000 -0.000000
2225
root -5.326287 35.253527 -10.183351 -3.294359 -7.922698 -6.179737
Spine -1.199765 -3.308099 10.506560
Head 6.546884 3.947542 -9.746308
LeftShoulder -19.290840 15.240156 -17.982130
LeftArm 19.400473 2.390911 -73.146948
LeftForeArm 4.251649 -0.000000 11.920571
LeftHand 1.973295 -0.000000 -6.493872
LeftHandThumb1 -26.253704 0.000000 33.147579
RightShoulder -0.176393 1.885258 3.666837
RightArm -1.479117 34.931200 75.156823
RightForeArm 11.280290 0.000000 97.872603
RightHand 11.251159 -0.000000 -8.936813
RightHandThumb1 -24.326973 -0.000000 -32.862282
LeftUpLeg 13.501819 16.470264 7.951216
LeftLeg -8.794877 -0.000000 0.000000
LeftFoot -15.771608 27.859016 -8.057814
LeftToeBase 22.996335 -0.000000 -0.000000
RightUpLeg 9.051310 -3.008282 4.187220
RightLeg -3.929675 -0.000000 0.000000
RightFoot -3.965639 -26.472671 3.799760
RightToeBase 13.567996 -0.000000 -0.000000
2226
root -5.324630 35.252560 -10.179637 -3.261805 -7.892548 -6.173081
Spine -1.249622 -3.417025 10.487837
Head 6.522278 4.017167 -9.730148
LeftShoulder -19.322285 15.245316 -17.980049
LeftArm 19.352387 2.381576 -73.152892
LeftForeArm 4.263930 0.000000 11.903191
LeftHand 2.007500 -0.000000 -6.428853
LeftHandThumb1 -26.253704 0.000000 33.147579
RightShoulder -0.279468 2.060138 3.735743
RightArm -2.046224 36.513643 74.934426
RightForeArm 11.506810 -0.000000 97.937994
RightHand 11.472505 -0.000000 -9.515110
RightHandThumb1 -24.326973 -0.000000 -32.862282
LeftUpLeg 13.467604 16.445630 7.928203
LeftLeg -8.799219 -0.000000 0.000000
LeftFoot -15.761709 27.845825 -8.099577
LeftToeBase 22.888219 -0.000000 -0.000000
RightUpLeg 9.018486 -3.013351 4.179502
RightLeg -3.915042 -0.000000 0.000000
RightFoot -3.986836 -26.492984 3.844433
RightToeBase 13.513164 -0.000000 -0.000000
2227
root -5.325051 35.251312 -10.177196 -3.224351 -7.862764 -6.165907
Spine -1.313029 -3.535296 10.462551
Head 6.526069 4.117306 -9.702139
LeftShoulder -19.360400 15.259893 -17.977887
LeftArm 19.314797 2.334261 -73.170327
LeftForeArm 4.293452 0.000000 11.879160
LeftHand 2.046225 -0.000000 -6.407453
LeftHandThumb1 -26.253704 0.000000 33.147579
RightShoulder -0.390230 2.055002 3.786753
RightArm -2.412087 37.958992 74.728922
RightForeArm 11.741000 -0.000000 97.991110
RightHand 11.598237 -0.000000 -11.215497
RightHandThumb1 -24.326973 -0.000000 -32.862282
LeftUpLeg 13.424298 16.441519 7.909438
LeftLeg -8.799294 -0.000000 0.000000
LeftFoot -15.767052 27.832184 -8.092172
LeftToeBase 22.866713 -0.000000 -0.000000
RightUpLeg 8.977693 -3.012827 4.179153
RightLeg -3.898182 -0.000000 0.000000
RightFoot -4.006911 -26.536089 3.750835
RightToeBase 13.619143 -0.000000 -0.000000
